<?xml version="1.0" encoding="iso-8859-1"?>
<!-- Generator: Adobe Illustrator 19.0.0, SVG Export Plug-In . SVG Version: 6.00 Build 0) -->
<svg version="1.1" id="Layer_1" xmlns="http://www.w3.org/2000/svg" xmlns:xlink="http://www.w3.org/1999/xlink" x="0px" y="0px" viewBox="0 0 488 488" style="enable-background:new 0 0 488 488;" xml:space="preserve">
	<g transform="translate(0 -540.36)">
		<g>
			<g>
				<polygon points="9.99,621.36 9.99,621.36 9.99,621.36 			" />
				<path d="M478,540.36H91.691c-2.2,0-4.3,0.7-6,2l-81.702,61c-4.4,3.3-5.3,9.6-2,14c1.9,2.6,5,4,8,4c2.1,0,4.2-0.7,6-2l79.002-59
				H478c5.5,0,10-4.5,10-10S483.5,540.36,478,540.36z" />
				<path d="M132.192,591.36c-5.5,0-10,4.5-10,10v416.2c0,5.5,4.5,10,10,10s10-4.4,10-10v-416.2
				C142.192,595.86,137.692,591.36,132.192,591.36z" />
				<path d="M460.999,919.86l-74.502,74.4v-392.8c0-5.5-4.5-10-10-10s-10,4.5-10,10v416.9c0,4,2.5,7.7,6.2,9.2
				c1.2,0.6,2.5,0.8,3.8,0.8c2.6,0,5.1-1,7-2.9l91.602-91.5c3.9-3.9,3.9-10.2,0-14.1S464.9,915.96,460.999,919.86z" />
			</g>
		</g>
	</g>
	<g>
	</g>
	<g>
	</g>
	<g>
	</g>
	<g>
	</g>
	<g>
	</g>
	<g>
	</g>
	<g>
	</g>
	<g>
	</g>
	<g>
	</g>
	<g>
	</g>
	<g>
	</g>
	<g>
	</g>
	<g>
	</g>
	<g>
	</g>
	<g>
	</g>
</svg>
